# xmcd
#
# Track frame offsets:
# 150
# 18444
# 38315
# 53778
# 69041
# 87579
# 110369
# 130848
#
# Disc length: 2030 seconds
#
# Revision: 1
# Processed by: cddbd v1.4PL0 Copyright (c) Steve Scherf et al.
# Submitted via: inCDius 2.0b9
#
DISCID=5907ec08
DTITLE=The Ghears - The Ghears
DYEAR=1900
DGENRE=
TTITLE0=Five Seconds Fake
TTITLE1=Don't Go Alone
TTITLE2=Crystalize
TTITLE3=Come Clean
TTITLE4=False Face
TTITLE5=The Ladder
TTITLE6=Courage
TTITLE7=Forgotten Mind
EXTD=
EXTT0=
EXTT1=
EXTT2=
EXTT3=
EXTT4=
EXTT5=
EXTT6=
EXTT7=
PLAYORDER=
